<svg width="26" height="18" viewBox="0 0 26 18" fill="none" xmlns="http://www.w3.org/2000/svg">
<path d="M21.7532 7.98834C21.9133 7.57037 22.0032 7.11334 22.0032 6.63678C22.0032 4.56647 20.3235 2.88678 18.2532 2.88678C17.4836 2.88678 16.7649 3.12115 16.1711 3.51959C15.0891 1.64459 13.0696 0.38678 10.7532 0.38678C7.30005 0.38678 4.50317 3.18365 4.50317 6.63678C4.50317 6.74225 4.50708 6.84772 4.51099 6.95319C2.32349 7.72272 0.753174 9.80865 0.753174 12.2618C0.753174 15.3672 3.27271 17.8868 6.37817 17.8868H20.7532C23.5149 17.8868 25.7532 15.6485 25.7532 12.8868C25.7532 10.4688 24.0344 8.44928 21.7532 7.98834ZM16.5618 11.4532L12.4446 15.5704C12.2024 15.8126 11.804 15.8126 11.5618 15.5704L7.44458 11.4532C7.05005 11.0587 7.3313 10.3868 7.88599 10.3868H10.4407V6.01178C10.4407 5.66803 10.7219 5.38678 11.0657 5.38678H12.9407C13.2844 5.38678 13.5657 5.66803 13.5657 6.01178V10.3868H16.1204C16.675 10.3868 16.9563 11.0587 16.5618 11.4532V11.4532Z" fill="black"/>
</svg>
