<svg width="43" height="38" viewBox="0 0 43 38" fill="none" xmlns="http://www.w3.org/2000/svg">
<path d="M42.516 32.6572C43.894 35.0318 42.1643 38 39.4122 38H3.58738C0.829936 38 -0.891706 35.0272 0.483547 32.6572L18.3962 1.78014C19.7748 -0.595531 23.2277 -0.591226 24.6038 1.78014L42.516 32.6572ZM21.5 26.2734C19.6035 26.2734 18.066 27.802 18.066 29.6875C18.066 31.573 19.6035 33.1016 21.5 33.1016C23.3966 33.1016 24.934 31.573 24.934 29.6875C24.934 27.802 23.3966 26.2734 21.5 26.2734ZM18.2397 14.0017L18.7935 24.0954C18.8194 24.5677 19.2122 24.9375 19.688 24.9375H23.3121C23.7878 24.9375 24.1806 24.5677 24.2065 24.0954L24.7603 14.0017C24.7883 13.4915 24.3797 13.0625 23.8658 13.0625H19.1341C18.6202 13.0625 18.2117 13.4915 18.2397 14.0017Z" fill="#FFC901"/>
</svg>
