<svg width="30" height="27" viewBox="0 0 30 27" fill="none" xmlns="http://www.w3.org/2000/svg">
<path d="M20.9687 4.38308L25.6667 9.14065C25.8646 9.34108 25.8646 9.6681 25.6667 9.86853L14.2917 21.388L9.45833 21.9312C8.8125 22.0051 8.26563 21.4513 8.33854 20.7972L8.875 15.9025L20.25 4.38308C20.4479 4.18265 20.7708 4.18265 20.9687 4.38308ZM29.4062 3.17523L26.8646 0.601289C26.0729 -0.20043 24.7865 -0.20043 23.9896 0.601289L22.1458 2.46845C21.9479 2.66888 21.9479 2.9959 22.1458 3.19633L26.8438 7.9539C27.0417 8.15433 27.3646 8.15433 27.5625 7.9539L29.4062 6.08674C30.1979 5.27974 30.1979 3.97695 29.4062 3.17523V3.17523ZM20 18.2549V23.6243H3.33333V6.74604H15.3021C15.4687 6.74604 15.625 6.67748 15.7448 6.56144L17.8281 4.45165C18.224 4.05079 17.9427 3.37039 17.3854 3.37039H2.5C1.11979 3.37039 0 4.5044 0 5.90213V24.4683C0 25.866 1.11979 27 2.5 27H20.8333C22.2135 27 23.3333 25.866 23.3333 24.4683V16.1451C23.3333 15.5808 22.6615 15.3012 22.2656 15.6968L20.1823 17.8066C20.0677 17.9279 20 18.0862 20 18.2549Z" fill="#F0F0F0"/>
</svg>
